<svg width="8" height="22" viewBox="0 0 8 22" fill="none" xmlns="http://www.w3.org/2000/svg">
<g clip-path="url(#clip0_924_350)">
<path d="M1.41434 14.9106C1.24468 14.9106 1.09965 14.8518 0.97925 14.7341C0.858847 14.6165 0.798645 14.4728 0.798645 14.3032C0.798645 14.1335 0.861583 13.9857 0.987459 13.8599L4.30402 10.5515L0.987459 7.24315C0.861583 7.11727 0.798645 6.9695 0.798645 6.79985C0.798645 6.63019 0.858847 6.48652 0.97925 6.36886C1.09965 6.25119 1.24468 6.19236 1.41434 6.19236C1.57306 6.19236 1.71535 6.24982 1.84123 6.36475L5.58467 10.0918C5.71602 10.2122 5.7817 10.3654 5.7817 10.5515C5.7817 10.7266 5.71602 10.8799 5.58467 11.0112L1.84123 14.7382C1.7263 14.8532 1.584 14.9106 1.41434 14.9106Z" fill="#0066CC"/>
</g>
<defs>
<clipPath id="clip0_924_350">
<rect width="7.13" height="21" fill="white" transform="matrix(1 0 0 -1 0.798645 21.0352)"/>
</clipPath>
</defs>
</svg>
