<svg width="11" height="30" viewBox="0 0 11 30" fill="none" xmlns="http://www.w3.org/2000/svg">
<g clip-path="url(#clip0_924_420)">
<path d="M1.65283 20.7866C1.4395 20.7866 1.25714 20.7126 1.10575 20.5647C0.954358 20.4167 0.878662 20.2361 0.878662 20.0228C0.878662 19.8095 0.957799 19.6237 1.11607 19.4654L5.28625 15.3055L1.11607 11.1457C0.957799 10.9874 0.878662 10.8016 0.878662 10.5883C0.878662 10.3749 0.954358 10.1943 1.10575 10.0464C1.25714 9.8984 1.4395 9.82442 1.65283 9.82442C1.85239 9.82442 2.03131 9.89668 2.18958 10.0412L6.89652 14.7275C7.06167 14.8789 7.14425 15.0716 7.14425 15.3055C7.14425 15.5257 7.06167 15.7184 6.89652 15.8836L2.18958 20.5699C2.04507 20.7144 1.86615 20.7866 1.65283 20.7866Z" fill="#2997FF"/>
</g>
<defs>
<clipPath id="clip0_924_420">
<rect width="9.51" height="29" fill="white" transform="matrix(1 0 0 -1 0.878662 29.7849)"/>
</clipPath>
</defs>
</svg>
