<svg width="9" height="22" viewBox="0 0 9 22" fill="none" xmlns="http://www.w3.org/2000/svg">
<g clip-path="url(#clip0_924_362)">
<path d="M1.51432 14.9106C1.34466 14.9106 1.19963 14.8518 1.07923 14.7341C0.958822 14.6165 0.89862 14.4728 0.89862 14.3032C0.89862 14.1335 0.961558 13.9857 1.08743 13.8599L4.404 10.5515L1.08743 7.24315C0.961558 7.11727 0.89862 6.9695 0.89862 6.79985C0.89862 6.63019 0.958822 6.48652 1.07923 6.36886C1.19963 6.25119 1.34466 6.19236 1.51432 6.19236C1.67303 6.19236 1.81533 6.24982 1.9412 6.36475L5.68465 10.0918C5.816 10.2122 5.88167 10.3654 5.88167 10.5515C5.88167 10.7266 5.816 10.8799 5.68465 11.0112L1.9412 14.7382C1.82627 14.8532 1.68398 14.9106 1.51432 14.9106Z" fill="#0066CC"/>
</g>
<defs>
<clipPath id="clip0_924_362">
<rect width="7.13" height="21" fill="white" transform="matrix(1 0 0 -1 0.898621 21.0352)"/>
</clipPath>
</defs>
</svg>
