<svg width="10" height="29" viewBox="0 0 10 29" fill="none" xmlns="http://www.w3.org/2000/svg">
<g clip-path="url(#clip0_918_135)">
<path d="M0.874173 20.0017C0.660847 20.0017 0.478488 19.9278 0.327095 19.7798C0.175702 19.6319 0.100006 19.4512 0.100006 19.2379C0.100006 19.0246 0.179143 18.8388 0.337417 18.6805L4.50759 14.5206L0.337417 10.3608C0.179143 10.2025 0.100006 10.0167 0.100006 9.80339C0.100006 9.59006 0.175702 9.40942 0.327095 9.26147C0.478488 9.11352 0.660847 9.03954 0.874173 9.03954C1.07374 9.03954 1.25265 9.1118 1.41093 9.25631L6.11786 13.9426C6.28302 14.094 6.36559 14.2867 6.36559 14.5206C6.36559 14.7408 6.28302 14.9335 6.11786 15.0987L1.41093 19.785C1.26642 19.9295 1.0875 20.0017 0.874173 20.0017Z" fill="#0066CC"/>
</g>
<defs>
<clipPath id="clip0_918_135">
<rect width="9.51" height="29" fill="white" transform="matrix(1 0 0 -1 0.100006 29)"/>
</clipPath>
</defs>
</svg>
