<svg width="11" height="30" viewBox="0 0 11 30" fill="none" xmlns="http://www.w3.org/2000/svg">
<g clip-path="url(#clip0_924_417)">
<path d="M1.6228 20.7866C1.40947 20.7866 1.22711 20.7126 1.07572 20.5647C0.924329 20.4167 0.848633 20.2361 0.848633 20.0228C0.848633 19.8095 0.92777 19.6237 1.08604 19.4654L5.25622 15.3055L1.08604 11.1457C0.92777 10.9874 0.848633 10.8016 0.848633 10.5883C0.848633 10.3749 0.924329 10.1943 1.07572 10.0464C1.22711 9.8984 1.40947 9.82442 1.6228 9.82442C1.82236 9.82442 2.00128 9.89668 2.15955 10.0412L6.86649 14.7275C7.03164 14.8789 7.11422 15.0716 7.11422 15.3055C7.11422 15.5257 7.03164 15.7184 6.86649 15.8836L2.15955 20.5699C2.01504 20.7144 1.83613 20.7866 1.6228 20.7866Z" fill="#2997FF"/>
</g>
<defs>
<clipPath id="clip0_924_417">
<rect width="9.51" height="29" fill="white" transform="matrix(1 0 0 -1 0.848633 29.7849)"/>
</clipPath>
</defs>
</svg>
