<svg width="9" height="22" viewBox="0 0 9 22" fill="none" xmlns="http://www.w3.org/2000/svg">
<g clip-path="url(#clip0_924_388)">
<path d="M1.55433 14.9104C1.38467 14.9104 1.23964 14.8516 1.11923 14.7339C0.998831 14.6162 0.938629 14.4726 0.938629 14.3029C0.938629 14.1333 1.00157 13.9855 1.12744 13.8596L4.444 10.5513L1.12744 7.2429C1.00157 7.11703 0.938629 6.96926 0.938629 6.7996C0.938629 6.62994 0.998831 6.48628 1.11923 6.36861C1.23964 6.25095 1.38467 6.19211 1.55433 6.19211C1.71304 6.19211 1.85534 6.24958 1.98121 6.36451L5.72466 10.0915C5.85601 10.2119 5.92168 10.3652 5.92168 10.5513C5.92168 10.7264 5.85601 10.8796 5.72466 11.011L1.98121 14.738C1.86628 14.8529 1.72399 14.9104 1.55433 14.9104Z" fill="#2997FF"/>
</g>
<defs>
<clipPath id="clip0_924_388">
<rect width="7.13" height="21" fill="white" transform="matrix(1 0 0 -1 0.938629 21.0349)"/>
</clipPath>
</defs>
</svg>
