<svg width="9" height="22" viewBox="0 0 9 22" fill="none" xmlns="http://www.w3.org/2000/svg">
<g clip-path="url(#clip0_924_347)">
<path d="M1.5543 14.9106C1.38464 14.9106 1.23961 14.8518 1.1192 14.7341C0.9988 14.6165 0.938599 14.4728 0.938599 14.3032C0.938599 14.1335 1.00154 13.9857 1.12741 13.8599L4.44397 10.5515L1.12741 7.24315C1.00154 7.11727 0.938599 6.9695 0.938599 6.79985C0.938599 6.63019 0.9988 6.48652 1.1192 6.36886C1.23961 6.25119 1.38464 6.19236 1.5543 6.19236C1.71301 6.19236 1.8553 6.24982 1.98118 6.36475L5.72463 10.0918C5.85598 10.2122 5.92165 10.3654 5.92165 10.5515C5.92165 10.7266 5.85598 10.8799 5.72463 11.0112L1.98118 14.7382C1.86625 14.8532 1.72396 14.9106 1.5543 14.9106Z" fill="#0066CC"/>
</g>
<defs>
<clipPath id="clip0_924_347">
<rect width="7.13" height="21" fill="white" transform="matrix(1 0 0 -1 0.938599 21.0352)"/>
</clipPath>
</defs>
</svg>
