<svg width="10" height="30" viewBox="0 0 10 30" fill="none" xmlns="http://www.w3.org/2000/svg">
<g clip-path="url(#clip0_924_436)">
<path d="M0.902829 20.1467C0.689503 20.1467 0.507144 20.0728 0.355751 19.9248C0.204358 19.7768 0.128662 19.5962 0.128662 19.3829C0.128662 19.1696 0.207799 18.9838 0.366073 18.8255L4.53625 14.6656L0.366073 10.5058C0.207799 10.3475 0.128662 10.1617 0.128662 9.94837C0.128662 9.73505 0.204358 9.55441 0.355751 9.40646C0.507144 9.25851 0.689503 9.18453 0.902829 9.18453C1.10239 9.18453 1.28131 9.25679 1.43958 9.4013L6.14652 14.0876C6.31167 14.239 6.39425 14.4317 6.39425 14.6656C6.39425 14.8858 6.31167 15.0785 6.14652 15.2437L1.43958 19.93C1.29507 20.0745 1.11615 20.1467 0.902829 20.1467Z" fill="#0066CC"/>
</g>
<defs>
<clipPath id="clip0_924_436">
<rect width="9.51" height="29" fill="white" transform="matrix(1 0 0 -1 0.128662 29.145)"/>
</clipPath>
</defs>
</svg>
