<svg width="26" height="30" viewBox="0 0 26 30" fill="none" xmlns="http://www.w3.org/2000/svg">
<g clip-path="url(#clip0_924_405)">
<path d="M11.4047 23.1572C10.4521 23.1572 9.53196 23.0321 8.64441 22.782C7.75687 22.5318 6.92244 22.1754 6.14112 21.7128C5.3598 21.2502 4.65045 20.7002 4.01306 20.0628C3.37567 19.4254 2.82567 18.7161 2.36305 17.9347C1.90043 17.1534 1.54404 16.319 1.29388 15.4315C1.04372 14.5439 0.91864 13.6238 0.91864 12.6711C0.91864 11.7116 1.04372 10.7898 1.29388 9.9057C1.54404 9.02158 1.89871 8.18886 2.35791 7.40754C2.8171 6.62623 3.36539 5.91688 4.00278 5.27949C4.64017 4.6421 5.34952 4.09209 6.13084 3.62947C6.91215 3.16685 7.74659 2.81046 8.63413 2.5603C9.52168 2.31014 10.4418 2.18507 11.3944 2.18507C12.354 2.18507 13.2775 2.31014 14.165 2.5603C15.0526 2.81046 15.8853 3.16685 16.6632 3.62947C17.4411 4.09209 18.1504 4.6421 18.7912 5.27949C19.4321 5.91688 19.9838 6.62623 20.4464 7.40754C20.909 8.18886 21.2654 9.02158 21.5156 9.9057C21.7657 10.7898 21.8908 11.7116 21.8908 12.6711C21.8908 13.6238 21.7657 14.5439 21.5156 15.4315C21.2654 16.319 20.909 17.1534 20.4464 17.9347C19.9838 18.7161 19.4338 19.4254 18.7964 20.0628C18.159 20.7002 17.4496 21.2502 16.6683 21.7128C15.887 22.1754 15.0543 22.5318 14.1702 22.782C13.286 23.0321 12.3642 23.1572 11.4047 23.1572ZM9.53368 16.6394L15.3113 13.216C15.4552 13.1338 15.5495 13.0224 15.594 12.8819C15.6386 12.7414 15.6368 12.6009 15.5889 12.4604C15.5409 12.3199 15.4484 12.2085 15.3113 12.1263L9.53368 8.70288C9.38975 8.61379 9.23897 8.57609 9.08133 8.5898C8.9237 8.60351 8.79005 8.65662 8.6804 8.74915C8.57074 8.84167 8.51591 8.96675 8.51591 9.12438V16.2076C8.51591 16.3653 8.56731 16.4938 8.67012 16.5931C8.77292 16.6925 8.90314 16.7474 9.06077 16.7576C9.21841 16.7679 9.37604 16.7285 9.53368 16.6394Z" fill="white"/>
</g>
<defs>
<clipPath id="clip0_924_405">
<rect width="24.81" height="29" fill="white" transform="matrix(1 0 0 -1 0.91864 29.145)"/>
</clipPath>
</defs>
</svg>
