<svg width="26" height="29" viewBox="0 0 26 29" fill="none" xmlns="http://www.w3.org/2000/svg">
<g clip-path="url(#clip0_918_104)">
<path d="M11.3761 23.0122C10.4234 23.0122 9.50334 22.8871 8.61579 22.637C7.72824 22.3868 6.89381 22.0304 6.11249 21.5678C5.33118 21.1052 4.62183 20.5552 3.98444 19.9178C3.34705 19.2804 2.79704 18.571 2.33442 17.7897C1.8718 17.0084 1.51541 16.174 1.26525 15.2864C1.01509 14.3989 0.890015 13.4788 0.890015 12.5261C0.890015 11.5666 1.01509 10.6448 1.26525 9.76068C1.51541 8.87656 1.87009 8.04384 2.32928 7.26253C2.78848 6.48121 3.33677 5.77186 3.97416 5.13447C4.61155 4.49708 5.3209 3.94707 6.10221 3.48445C6.88353 3.02183 7.71796 2.66544 8.60551 2.41528C9.49306 2.16512 10.4132 2.04005 11.3658 2.04005C12.3253 2.04005 13.2489 2.16512 14.1364 2.41528C15.0239 2.66544 15.8567 3.02183 16.6346 3.48445C17.4124 3.94707 18.1218 4.49708 18.7626 5.13447C19.4034 5.77186 19.9551 6.48121 20.4178 7.26253C20.8804 8.04384 21.2368 8.87656 21.4869 9.76068C21.7371 10.6448 21.8622 11.5666 21.8622 12.5261C21.8622 13.4788 21.7371 14.3989 21.4869 15.2864C21.2368 16.174 20.8804 17.0084 20.4178 17.7897C19.9551 18.571 19.4051 19.2804 18.7678 19.9178C18.1304 20.5552 17.421 21.1052 16.6397 21.5678C15.8584 22.0304 15.0257 22.3868 14.1415 22.637C13.2574 22.8871 12.3356 23.0122 11.3761 23.0122ZM9.50505 16.4944L15.2827 13.071C15.4266 12.9887 15.5208 12.8774 15.5654 12.7369C15.6099 12.5964 15.6082 12.4559 15.5602 12.3154C15.5123 12.1749 15.4197 12.0635 15.2827 11.9813L9.50505 8.55786C9.36112 8.46877 9.21034 8.43107 9.05271 8.44478C8.89507 8.45849 8.76143 8.5116 8.65177 8.60413C8.54211 8.69665 8.48728 8.82173 8.48728 8.97936V16.0626C8.48728 16.2202 8.53869 16.3487 8.64149 16.4481C8.74429 16.5475 8.87451 16.6023 9.03215 16.6126C9.18978 16.6229 9.34742 16.5835 9.50505 16.4944Z" fill="white"/>
</g>
<defs>
<clipPath id="clip0_918_104">
<rect width="24.81" height="29" fill="white" transform="matrix(1 0 0 -1 0.890015 29)"/>
</clipPath>
</defs>
</svg>
