<svg width="8" height="22" viewBox="0 0 8 22" fill="none" xmlns="http://www.w3.org/2000/svg">
<g clip-path="url(#clip0_924_336)">
<path d="M0.794348 14.9106C0.624689 14.9106 0.479658 14.8518 0.359255 14.7341C0.238852 14.6165 0.17865 14.4728 0.17865 14.3032C0.17865 14.1335 0.241588 13.9857 0.367464 13.8599L3.68403 10.5515L0.367464 7.24315C0.241588 7.11727 0.17865 6.9695 0.17865 6.79985C0.17865 6.63019 0.238852 6.48652 0.359255 6.36886C0.479658 6.25119 0.624689 6.19236 0.794348 6.19236C0.953062 6.19236 1.09536 6.24982 1.22123 6.36475L4.96468 10.0918C5.09603 10.2122 5.1617 10.3654 5.1617 10.5515C5.1617 10.7266 5.09603 10.8799 4.96468 11.0112L1.22123 14.7382C1.1063 14.8532 0.964007 14.9106 0.794348 14.9106Z" fill="#0066CC"/>
</g>
<defs>
<clipPath id="clip0_924_336">
<rect width="7.13" height="21" fill="white" transform="matrix(1 0 0 -1 0.17865 21.0352)"/>
</clipPath>
</defs>
</svg>
