<svg width="8" height="22" viewBox="0 0 8 22" fill="none" xmlns="http://www.w3.org/2000/svg">
<g clip-path="url(#clip0_924_322)">
<path d="M1.02439 14.9106C0.854731 14.9106 0.709699 14.8518 0.589296 14.7341C0.468893 14.6165 0.408691 14.4728 0.408691 14.3032C0.408691 14.1335 0.471629 13.9857 0.597506 13.8599L3.91407 10.5515L0.597506 7.24315C0.471629 7.11727 0.408691 6.9695 0.408691 6.79985C0.408691 6.63019 0.468893 6.48652 0.589296 6.36886C0.709699 6.25119 0.854731 6.19236 1.02439 6.19236C1.1831 6.19236 1.3254 6.24982 1.45127 6.36475L5.19472 10.0918C5.32607 10.2122 5.39174 10.3654 5.39174 10.5515C5.39174 10.7266 5.32607 10.8799 5.19472 11.0112L1.45127 14.7382C1.33634 14.8532 1.19405 14.9106 1.02439 14.9106Z" fill="#0066CC"/>
</g>
<defs>
<clipPath id="clip0_924_322">
<rect width="7.13" height="21" fill="white" transform="matrix(1 0 0 -1 0.408691 21.0352)"/>
</clipPath>
</defs>
</svg>
