<svg width="8" height="22" viewBox="0 0 8 22" fill="none" xmlns="http://www.w3.org/2000/svg">
<g clip-path="url(#clip0_924_333)">
<path d="M1.18433 14.9106C1.01467 14.9106 0.869642 14.8518 0.749239 14.7341C0.628836 14.6165 0.568634 14.4728 0.568634 14.3032C0.568634 14.1335 0.631572 13.9857 0.757448 13.8599L4.07401 10.5515L0.757448 7.24315C0.631572 7.11727 0.568634 6.9695 0.568634 6.79985C0.568634 6.63019 0.628836 6.48652 0.749239 6.36886C0.869642 6.25119 1.01467 6.19236 1.18433 6.19236C1.34305 6.19236 1.48534 6.24982 1.61122 6.36475L5.35466 10.0918C5.48601 10.2122 5.55169 10.3654 5.55169 10.5515C5.55169 10.7266 5.48601 10.8799 5.35466 11.0112L1.61122 14.7382C1.49629 14.8532 1.35399 14.9106 1.18433 14.9106Z" fill="#0066CC"/>
</g>
<defs>
<clipPath id="clip0_924_333">
<rect width="7.13" height="21" fill="white" transform="matrix(1 0 0 -1 0.568634 21.0352)"/>
</clipPath>
</defs>
</svg>
