<svg width="1921" height="45" viewBox="0 0 1921 45" fill="none" xmlns="http://www.w3.org/2000/svg">
<g filter="url(#filter0_b_924_577)">
<rect width="1920" height="44" transform="translate(0.0286255 0.14502)" fill="#161617" fill-opacity="0.8"/>
<g clip-path="url(#clip0_924_577)">
<path d="M483.102 17.8276C482.581 18.1465 482.149 18.5923 481.848 19.1234C481.546 19.6544 481.384 20.2533 481.377 20.8641C481.379 21.5514 481.582 22.2231 481.962 22.7958C482.342 23.3686 482.882 23.8173 483.515 24.0864C483.265 24.8909 482.896 25.6534 482.42 26.3482C481.738 27.3294 481.026 28.3105 479.941 28.3105C478.857 28.3105 478.578 27.6805 477.328 27.6805C476.109 27.6805 475.676 28.3312 474.684 28.3312C473.693 28.3312 473.001 27.4223 472.205 26.3069C471.155 24.7443 470.578 22.9118 470.543 21.0293C470.543 17.9309 472.557 16.2888 474.54 16.2888C475.593 16.2888 476.471 16.9807 477.132 16.9807C477.762 16.9807 478.743 16.2474 479.941 16.2474C480.557 16.2315 481.168 16.3673 481.719 16.6428C482.27 16.9184 482.745 17.3252 483.102 17.8276ZM479.373 14.9358C479.901 14.3145 480.2 13.5309 480.22 12.7158C480.221 12.6083 480.211 12.501 480.189 12.3958C479.282 12.4844 478.443 12.9167 477.845 13.6042C477.311 14.2006 477.001 14.9633 476.967 15.7627C476.967 15.8599 476.977 15.9568 476.998 16.0519C477.069 16.0654 477.142 16.0723 477.215 16.0726C477.633 16.0393 478.04 15.9214 478.411 15.7259C478.782 15.5305 479.109 15.2617 479.373 14.9358Z" fill="white" fill-opacity="0.8"/>
</g>
<path d="M545.737 20.608C546.739 20.608 547.407 21.346 547.43 22.465H543.95C544.026 21.346 544.729 20.608 545.737 20.608ZM548.491 23.28V22.893C548.491 20.93 547.454 19.717 545.749 19.717C544.014 19.717 542.901 21.006 542.901 22.993C542.901 24.991 543.997 26.256 545.749 26.256C547.132 26.256 548.116 25.588 548.409 24.51H547.401C547.137 25.067 546.587 25.366 545.772 25.366C544.7 25.366 544.003 24.575 543.95 23.327V23.28H548.491ZM538.944 19.829H539.904V20.766H539.998C540.186 20.151 540.912 19.717 541.75 19.717C541.914 19.717 542.125 19.729 542.254 19.747V20.754C542.172 20.731 541.809 20.696 541.61 20.696C540.649 20.696 539.951 21.794 539.951 22.231V26.145H538.944V19.829ZM534.674 25.348C533.479 25.348 532.805 24.481 532.805 22.987C532.805 21.487 533.479 20.626 534.674 20.626C535.87 20.626 536.544 21.487 536.544 22.987C536.544 24.481 535.87 25.348 534.674 25.348ZM534.674 19.717C532.876 19.717 531.762 20.954 531.762 22.987C531.762 25.014 532.876 26.256 534.674 26.256C536.473 26.256 537.587 25.014 537.587 22.987C537.587 20.954 536.473 19.717 534.674 19.717ZM529.196 18.242V19.877H530.603V20.72H529.196V24.295C529.196 25.039 529.478 25.355 530.134 25.355C530.316 25.355 530.415 25.349 530.603 25.332V26.181C530.404 26.216 530.21 26.24 530.011 26.24C528.71 26.24 528.189 25.759 528.189 24.552V20.72H527.169V19.877H528.189V18.242H529.196ZM521.093 23.936C521.222 24.821 522.066 25.383 523.267 25.383C524.404 25.383 525.242 24.768 525.242 23.93C525.242 23.21 524.715 22.753 523.549 22.46L522.465 22.178C520.935 21.792 520.273 21.1 520.273 19.899C520.273 18.463 521.474 17.491 523.261 17.491C524.896 17.491 526.115 18.463 526.203 19.829H525.142C524.996 18.962 524.281 18.446 523.226 18.446C522.101 18.446 521.357 19.008 521.357 19.864C521.357 20.526 521.82 20.907 522.986 21.206L523.871 21.44C525.623 21.879 526.326 22.559 526.326 23.801C526.326 25.354 525.101 26.344 523.168 26.344C521.375 26.344 520.138 25.395 520.027 23.936H521.093Z" fill="white" fill-opacity="0.8"/>
<g clip-path="url(#clip1_924_577)">
<path d="M592.464 26.1437V19.6867H592.394L589.728 26.1437H588.837L586.171 19.6867H586.101V26.1437H585.117V17.6886H586.341L589.236 24.7433H589.33L592.224 17.6886H593.449V26.1437H592.464ZM594.981 24.3741C594.981 23.2432 595.813 22.5929 597.284 22.505L599.106 22.3937V21.8195C599.106 21.0402 598.62 20.6125 597.676 20.6125C596.92 20.6125 596.393 20.8996 596.253 21.3977H595.233C595.368 20.384 596.364 19.7161 597.712 19.7161C599.253 19.7161 600.114 20.5071 600.114 21.8196V26.1438H599.153V25.212H599.059C598.649 25.8858 597.958 26.255 597.114 26.255C595.889 26.255 594.981 25.5284 594.981 24.3741ZM599.106 23.7882V23.2081L597.407 23.3194C596.446 23.3839 596.024 23.7178 596.024 24.3506C596.024 24.9951 596.569 25.3701 597.301 25.3701C598.338 25.3702 599.106 24.6905 599.106 23.7882ZM606.064 21.7609C605.9 21.1339 605.343 20.6242 604.435 20.6242C603.298 20.6242 602.584 21.5324 602.584 22.9621C602.584 24.4211 603.31 25.3469 604.435 25.3469C605.285 25.3469 605.877 24.9543 606.064 24.2395H607.084C606.902 25.3997 605.959 26.2551 604.441 26.2551C602.671 26.2551 601.541 24.9719 601.541 22.9621C601.541 20.9933 602.666 19.716 604.435 19.716C605.97 19.716 606.908 20.6359 607.083 21.7609H606.064Z" fill="white" fill-opacity="0.8"/>
</g>
<path d="M657.406 23.8452C657.406 24.7472 656.638 25.4272 655.601 25.4272C654.869 25.4272 654.324 25.0522 654.324 24.4072C654.324 23.7752 654.746 23.4412 655.707 23.3762L657.406 23.2652V23.8452ZM656.011 19.7732C654.664 19.7732 653.668 20.4412 653.533 21.4542H654.552C654.693 20.9562 655.22 20.6692 655.976 20.6692C656.92 20.6692 657.406 21.0972 657.406 21.8762V22.4502L655.584 22.5622C654.113 22.6502 653.281 23.3002 653.281 24.4312C653.281 25.5852 654.189 26.3122 655.414 26.3122C656.258 26.3122 656.949 25.9432 657.359 25.2692H657.453V26.2002H658.414V21.8762C658.414 20.5642 657.552 19.7732 656.011 19.7732ZM662.78 25.3482C661.625 25.3482 660.934 24.4632 660.934 22.9872C660.934 21.5162 661.631 20.6252 662.78 20.6252C663.922 20.6252 664.637 21.5392 664.637 22.9872C664.637 24.4462 663.928 25.3482 662.78 25.3482ZM664.614 17.3212V20.8242H664.526C664.168 20.1332 663.424 19.7172 662.545 19.7172C660.94 19.7172 659.891 21.0062 659.891 22.9872C659.891 24.9732 660.928 26.2562 662.545 26.2562C663.418 26.2562 664.168 25.8402 664.567 25.1372H664.66V26.1452H665.621V17.3212H664.614ZM649.22 22.1902H647.357V18.6272H649.22C650.445 18.6272 651.119 19.2662 651.119 20.4262C651.119 21.5452 650.422 22.1902 649.22 22.1902ZM649.496 17.6902H646.302V26.1452H647.357V23.1272H649.484C651.072 23.1272 652.203 22.0082 652.203 20.4262C652.203 18.8152 651.095 17.6902 649.496 17.6902ZM643.432 26.1442H644.44V19.8282H643.432V26.1442ZM643.233 17.9072C643.233 17.5202 643.549 17.2032 643.936 17.2032C644.323 17.2032 644.639 17.5202 644.639 17.9072C644.639 18.2932 644.323 18.6102 643.936 18.6102C643.549 18.6102 643.233 18.2932 643.233 17.9072Z" fill="white" fill-opacity="0.8"/>
<path d="M734.302 22.4654H737.782C737.759 21.3464 737.091 20.6084 736.089 20.6084C735.081 20.6084 734.378 21.3464 734.302 22.4654ZM738.761 24.5104C738.468 25.5884 737.484 26.2564 736.101 26.2564C734.349 26.2564 733.253 24.9904 733.253 22.9924C733.253 21.0064 734.366 19.7174 736.101 19.7174C737.806 19.7174 738.843 20.9304 738.843 22.8934V23.2794H734.302V23.3264C734.355 24.5744 735.052 25.3654 736.124 25.3654C736.939 25.3654 737.49 25.0674 737.753 24.5104H738.761ZM726.479 19.8284H727.44V20.8244H727.534C727.85 20.1274 728.466 19.7174 729.432 19.7174C730.85 19.7174 731.641 20.5554 731.641 22.0554V26.1454H730.634V22.3014C730.634 21.1644 730.153 20.6254 729.145 20.6254C728.137 20.6254 727.487 21.2994 727.487 22.4064V26.1454H726.479V19.8284ZM723.98 22.9864C723.98 21.4864 723.306 20.6254 722.111 20.6254C720.915 20.6254 720.241 21.4864 720.241 22.9864C720.241 24.4814 720.915 25.3484 722.111 25.3484C723.306 25.3484 723.98 24.4814 723.98 22.9864ZM719.198 22.9864C719.198 20.9534 720.312 19.7174 722.111 19.7174C723.909 19.7174 725.023 20.9534 725.023 22.9864C725.023 25.0144 723.909 26.2564 722.111 26.2564C720.312 26.2564 719.198 25.0144 719.198 22.9864ZM712.562 17.3204H713.57V20.8244H713.663C713.98 20.1274 714.642 19.7174 715.609 19.7174C716.945 19.7174 717.788 20.5724 717.788 22.0554V26.1454H716.781V22.3014C716.781 21.1824 716.277 20.6254 715.322 20.6254C714.191 20.6254 713.57 21.3404 713.57 22.4064V26.1454H712.562V17.3204ZM706.547 22.1904H708.41C709.612 22.1904 710.309 21.5454 710.309 20.4264C710.309 19.2664 709.635 18.6274 708.41 18.6274H706.547V22.1904ZM708.686 17.6904C710.285 17.6904 711.393 18.8154 711.393 20.4264C711.393 22.0084 710.262 23.1274 708.674 23.1274H706.547V26.1454H705.492V17.6904H708.686ZM702.572 26.1444H703.58V19.8284H702.572V26.1444ZM702.372 17.9064C702.372 17.5204 702.689 17.2034 703.075 17.2034C703.462 17.2034 703.779 17.5204 703.779 17.9064C703.779 18.2934 703.462 18.6104 703.075 18.6104C702.689 18.6104 702.372 18.2934 702.372 17.9064Z" fill="white" fill-opacity="0.8"/>
<path d="M803.711 17.3208H804.719V20.8248H804.813C805.129 20.1278 805.791 19.7168 806.758 19.7168C808.094 19.7168 808.938 20.5728 808.938 22.0548V26.1448H807.93V22.3008C807.93 21.1818 807.426 20.6258 806.471 20.6258C805.34 20.6258 804.719 21.3408 804.719 22.4068V26.1448H803.711V17.3208ZM801.291 21.7618C801.127 21.1348 800.57 20.6258 799.662 20.6258C798.525 20.6258 797.81 21.5338 797.81 22.9638C797.81 24.4228 798.537 25.3478 799.662 25.3478C800.511 25.3478 801.103 24.9558 801.291 24.2408H802.31C802.128 25.4008 801.185 26.2568 799.668 26.2568C797.898 26.2568 796.767 24.9728 796.767 22.9638C796.767 20.9948 797.892 19.7168 799.662 19.7168C801.197 19.7168 802.134 20.6368 802.31 21.7618H801.291ZM794.758 18.1938V19.8288H796.165V20.6728H794.758V24.2468C794.758 24.9908 795.04 25.3068 795.696 25.3068C795.878 25.3068 795.977 25.3008 796.165 25.2838V26.1338C795.965 26.1688 795.772 26.1918 795.573 26.1918C794.272 26.1918 793.751 25.7118 793.751 24.5048V20.6728H792.731V19.8288H793.751V18.1938H794.758ZM790.558 23.7898V23.2098L788.859 23.3208C787.898 23.3848 787.476 23.7188 787.476 24.3518C787.476 24.9968 788.021 25.3718 788.753 25.3718C789.791 25.3718 790.558 24.6918 790.558 23.7898ZM786.433 24.3758C786.433 23.2448 787.265 22.5938 788.736 22.5068L790.558 22.3948V21.8208C790.558 21.0418 790.072 20.6138 789.128 20.6138C788.373 20.6138 787.845 20.9008 787.705 21.3988H786.685C786.82 20.3848 787.816 19.7168 789.164 19.7168C790.705 19.7168 791.566 20.5088 791.566 21.8208V26.1448H790.605V25.2138H790.511C790.101 25.8868 789.41 26.2568 788.566 26.2568C787.341 26.2568 786.433 25.5298 786.433 24.3758ZM778.749 26.1448H777.753L775.45 17.6898H776.551L778.233 24.5628H778.303L780.196 17.6898H781.262L783.155 24.5628H783.225L784.907 17.6898H786.008L783.706 26.1448H782.71L780.764 19.4708H780.694L778.749 26.1448Z" fill="white" fill-opacity="0.8"/>
<g clip-path="url(#clip2_924_577)">
<path d="M845.273 17.6899H846.38L848.865 24.7797H848.959L851.443 17.6899H852.55L849.433 26.145H848.39L845.273 17.6899ZM853.62 17.9067C853.62 17.52 853.936 17.2036 854.323 17.2036C854.709 17.2036 855.026 17.52 855.026 17.9067C855.026 18.2934 854.709 18.6098 854.323 18.6098C853.936 18.6098 853.62 18.2934 853.62 17.9067ZM853.807 19.8286H854.827V26.145H853.807V19.8286ZM856.306 24.5337H857.349C857.519 25.061 858.023 25.4067 858.832 25.4067C859.681 25.4067 860.285 25.0024 860.285 24.4282V24.4165C860.285 23.9888 859.962 23.6899 859.183 23.5024L858.205 23.268C857.021 22.9868 856.488 22.4711 856.488 21.5629V21.557C856.488 20.5082 857.496 19.7172 858.837 19.7172C860.162 19.7172 861.081 20.3793 861.222 21.4106H860.22C860.085 20.9126 859.593 20.5668 858.831 20.5668C858.081 20.5668 857.531 20.9535 857.531 21.5102V21.5219C857.531 21.9496 857.847 22.2192 858.591 22.4008L859.564 22.6352C860.753 22.9223 861.328 23.4379 861.328 24.3403V24.352C861.328 25.477 860.232 26.2563 858.796 26.2563C857.39 26.2563 856.423 25.5767 856.306 24.5337ZM862.626 17.9067C862.626 17.52 862.943 17.2036 863.33 17.2036C863.716 17.2036 864.033 17.52 864.033 17.9067C864.033 18.2934 863.716 18.6098 863.33 18.6098C862.943 18.6098 862.626 18.2934 862.626 17.9067ZM862.814 19.8286H863.833V26.145H862.814V19.8286ZM865.319 22.9927V22.981C865.319 20.9537 866.432 19.7173 868.231 19.7173C870.03 19.7173 871.143 20.9536 871.143 22.981V22.9927C871.143 25.0142 870.03 26.2564 868.231 26.2564C866.432 26.2564 865.319 25.0142 865.319 22.9927ZM870.1 22.9927V22.981C870.1 21.4869 869.426 20.6197 868.231 20.6197C867.036 20.6197 866.362 21.4869 866.362 22.981V22.9927C866.362 24.481 867.036 25.354 868.231 25.354C869.426 25.354 870.1 24.481 870.1 22.9927ZM872.605 19.8286H873.624V20.7778H873.718C874.035 20.1098 874.626 19.7173 875.558 19.7173C876.976 19.7173 877.767 20.5552 877.767 22.0552V26.145H876.748V22.3012C876.748 21.1645 876.279 20.6196 875.271 20.6196C874.263 20.6196 873.624 21.2993 873.624 22.4067V26.145H872.605V19.8286Z" fill="white" fill-opacity="0.8"/>
</g>
<g clip-path="url(#clip3_924_577)">
<path d="M925.724 19.8286H926.685V20.7656H926.779C926.966 20.1506 927.693 19.7176 928.531 19.7176C928.695 19.7176 928.906 19.7286 929.035 19.7466V20.7546C928.953 20.7306 928.589 20.6956 928.39 20.6956C927.429 20.6956 926.732 21.3406 926.732 22.2306V26.1446H925.724V19.8286ZM953.859 19.7176C955.183 19.7176 956.103 20.3736 956.238 21.4106H955.242C955.107 20.9066 954.615 20.5726 953.853 20.5726C953.103 20.5726 952.517 20.9536 952.517 21.5156C952.517 21.9496 952.869 22.2196 953.613 22.4006L954.586 22.6356C955.775 22.9226 956.349 23.4376 956.349 24.3466C956.349 25.4766 955.254 26.2566 953.818 26.2566C952.412 26.2566 951.445 25.5826 951.334 24.5336H952.371C952.541 25.0666 953.045 25.4066 953.853 25.4066C954.703 25.4066 955.312 25.0026 955.312 24.4226C955.312 23.9886 954.984 23.6956 954.31 23.5316L953.226 23.2676C952.043 22.9806 951.504 22.4716 951.504 21.5576C951.504 20.5086 952.517 19.7176 953.859 19.7176ZM947.194 25.3486C946.039 25.3486 945.348 24.4636 945.348 22.9866C945.348 21.5156 946.045 20.6256 947.194 20.6256C948.336 20.6256 949.051 21.5396 949.051 22.9866C949.051 24.4456 948.342 25.3486 947.194 25.3486ZM949.028 17.3206V20.8246H948.94C948.582 20.1336 947.838 19.7176 946.959 19.7176C945.354 19.7176 944.305 21.0066 944.305 22.9866C944.305 24.9736 945.342 26.2566 946.959 26.2566C947.832 26.2566 948.582 25.8406 948.981 25.1376H949.075V26.1446H950.036V17.3206H949.028ZM940.027 25.3486C938.832 25.3486 938.158 24.4806 938.158 22.9866C938.158 21.4866 938.832 20.6256 940.027 20.6256C941.223 20.6256 941.896 21.4866 941.896 22.9866C941.896 24.4806 941.223 25.3486 940.027 25.3486ZM940.027 19.7176C938.228 19.7176 937.115 20.9536 937.115 22.9866C937.115 25.0146 938.228 26.2566 940.027 26.2566C941.826 26.2566 942.939 25.0146 942.939 22.9866C942.939 20.9536 941.826 19.7176 940.027 19.7176ZM922.956 26.1446H923.964V19.8286H922.956V26.1446ZM922.757 17.9066C922.757 17.5196 923.074 17.2036 923.46 17.2036C923.847 17.2036 924.163 17.5196 924.163 17.9066C924.163 18.2936 923.847 18.6096 923.46 18.6096C923.074 18.6096 922.757 18.2936 922.757 17.9066ZM916.62 22.8286L917.944 19.0556H918.037L919.362 22.8286H916.62ZM918.512 17.6896H917.469L914.352 26.1446H915.459L916.309 23.7246H919.672L920.522 26.1446H921.629L918.512 17.6896ZM933.38 22.1896H931.516V18.6276H933.38C934.604 18.6276 935.278 19.2666 935.278 20.4266C935.278 21.5456 934.581 22.1896 933.38 22.1896ZM933.655 17.6896H930.462V26.1446H931.516V23.1276H933.643C935.231 23.1276 936.362 22.0086 936.362 20.4266C936.362 18.8146 935.255 17.6896 933.655 17.6896Z" fill="white" fill-opacity="0.8"/>
</g>
<path d="M996.534 26.145V18.6391H993.81V17.6899H1000.31V18.6391H997.589V26.145H996.534ZM1004.27 26.145L1001.15 17.6899H1002.26L1004.74 24.7797H1004.83L1007.32 17.6899H1008.43L1005.31 26.145H1004.27ZM1018.25 25.3012C1017.53 25.934 1016.54 26.3032 1015.51 26.3032C1013.83 26.3032 1012.65 25.3071 1012.65 23.8891C1012.65 22.8871 1013.2 22.1254 1014.33 21.5278C1014.4 21.4926 1014.56 21.4106 1014.65 21.3637C1013.88 20.5434 1013.59 19.9985 1013.59 19.3832C1013.59 18.2992 1014.51 17.4906 1015.75 17.4906C1017 17.4906 1017.91 18.2875 1017.91 19.3949C1017.91 20.2621 1017.39 20.8949 1016.08 21.5804L1018.19 23.8538C1018.46 23.3265 1018.59 22.635 1018.59 21.5804V21.4339H1019.58V21.5862C1019.58 22.8987 1019.34 23.8538 1018.88 24.5686L1020.35 26.145H1019.03L1018.25 25.3012ZM1013.71 23.8188C1013.71 24.768 1014.47 25.4126 1015.6 25.4126C1016.37 25.4126 1017.16 25.1079 1017.63 24.6216L1015.23 22.0083C1015.17 22.0317 1015.02 22.1079 1014.94 22.1489C1014.12 22.5708 1013.71 23.1567 1013.71 23.8188ZM1016.92 19.4302C1016.92 18.774 1016.44 18.3286 1015.76 18.3286C1015.08 18.3286 1014.6 18.7856 1014.6 19.4419C1014.6 19.9107 1014.84 20.3208 1015.51 20.9829C1016.54 20.4555 1016.92 20.0337 1016.92 19.4302ZM1030.43 26.145V22.2954H1025.79V26.145H1024.74V17.6899H1025.79V21.3461H1030.43V17.6899H1031.49V26.145H1030.43ZM1033.08 22.9868C1033.08 20.9536 1034.19 19.7173 1035.99 19.7173C1037.79 19.7173 1038.9 20.9536 1038.9 22.9868C1038.9 25.0141 1037.79 26.2563 1035.99 26.2563C1034.19 26.2563 1033.08 25.0141 1033.08 22.9868ZM1037.86 22.9868C1037.86 21.4868 1037.19 20.6255 1035.99 20.6255C1034.8 20.6255 1034.12 21.4868 1034.12 22.9868C1034.12 24.4809 1034.8 25.3481 1035.99 25.3481C1037.19 25.3481 1037.86 24.4809 1037.86 22.9868ZM1040.37 19.8286H1041.33V20.8247H1041.42C1041.71 20.1216 1042.34 19.7173 1043.18 19.7173C1044.04 19.7173 1044.64 20.1685 1044.93 20.8247H1045.02C1045.36 20.1567 1046.08 19.7173 1046.96 19.7173C1048.25 19.7173 1048.97 20.4556 1048.97 21.7798V26.145H1047.96V22.0141C1047.96 21.0825 1047.52 20.6254 1046.63 20.6254C1045.75 20.6254 1045.17 21.2816 1045.17 22.0844V26.145H1044.16V21.8559C1044.16 21.1059 1043.64 20.6254 1042.84 20.6254C1042.01 20.6254 1041.37 21.3402 1041.37 22.2309V26.145H1040.37L1040.37 19.8286ZM1055.88 24.5102C1055.59 25.5883 1054.6 26.2563 1053.22 26.2563C1051.47 26.2563 1050.37 24.9907 1050.37 22.9926C1050.37 21.0063 1051.48 19.7172 1053.22 19.7172C1054.92 19.7172 1055.96 20.9301 1055.96 22.893V23.2797H1051.42V23.3266C1051.47 24.5746 1052.17 25.3657 1053.24 25.3657C1054.06 25.3657 1054.61 25.0669 1054.87 24.5102H1055.88ZM1051.42 22.4653H1054.9C1054.88 21.3462 1054.21 20.6079 1053.21 20.6079C1052.2 20.6079 1051.5 21.3462 1051.42 22.4653Z" fill="white" fill-opacity="0.8"/>
<g clip-path="url(#clip4_924_577)">
<path d="M1092.3 17.6313H1097.54V18.5805H1093.35V21.2934H1097.32V22.2309H1093.35V25.1371H1097.54V26.0863H1092.3V17.6313ZM1099.2 19.77H1100.22V20.7192H1100.31C1100.63 20.0512 1101.22 19.6587 1102.15 19.6587C1103.57 19.6587 1104.36 20.4966 1104.36 21.9966V26.0864H1103.34V22.2426C1103.34 21.1059 1102.87 20.561 1101.86 20.561C1100.86 20.561 1100.22 21.2407 1100.22 22.3481V26.0864H1099.2V19.77ZM1106.48 24.4458V20.6138H1105.48V19.77H1106.48V18.1352H1107.53V19.77H1108.92V20.6138H1107.53V24.188C1107.53 24.9321 1107.79 25.231 1108.45 25.231C1108.63 25.231 1108.73 25.2251 1108.92 25.2076V26.0748C1108.72 26.11 1108.52 26.1334 1108.32 26.1334C1107.02 26.1333 1106.48 25.6528 1106.48 24.4458ZM1109.91 22.9516V22.9457C1109.91 20.9945 1111.03 19.6586 1112.74 19.6586C1114.46 19.6586 1115.5 20.9359 1115.5 22.8227V23.2211H1110.96C1110.99 24.5277 1111.71 25.2895 1112.83 25.2895C1113.69 25.2895 1114.22 24.8852 1114.39 24.5043L1114.41 24.4516H1115.43L1115.42 24.4985C1115.2 25.354 1114.3 26.1977 1112.81 26.1977C1111 26.1977 1109.91 24.9321 1109.91 22.9516ZM1110.98 22.4067H1114.47C1114.36 21.1587 1113.67 20.5669 1112.74 20.5669C1111.8 20.5669 1111.09 21.2055 1110.98 22.4067ZM1116.97 19.77H1117.99V20.7075H1118.08C1118.32 20.0454 1118.91 19.6587 1119.77 19.6587C1119.96 19.6587 1120.18 19.6821 1120.28 19.6997V20.6899C1120.07 20.6547 1119.87 20.6313 1119.65 20.6313C1118.68 20.6313 1117.99 21.2465 1117.99 22.1723V26.0864H1116.97V19.77ZM1121.93 24.4458V20.6138H1120.94V19.77H1121.93V18.1352H1122.99V19.77H1124.37V20.6138H1122.99V24.188C1122.99 24.9321 1123.24 25.231 1123.9 25.231C1124.08 25.231 1124.18 25.2251 1124.37 25.2076V26.0748C1124.17 26.11 1123.98 26.1334 1123.78 26.1334C1122.48 26.1333 1121.93 25.6528 1121.93 24.4458ZM1125.4 24.3227V24.311C1125.4 23.186 1126.23 22.5356 1127.7 22.4477L1129.51 22.3364V21.7622C1129.51 20.9829 1129.04 20.561 1128.09 20.561C1127.34 20.561 1126.84 20.8422 1126.68 21.3344L1126.67 21.352H1125.65L1125.66 21.3168C1125.82 20.3266 1126.78 19.6586 1128.13 19.6586C1129.67 19.6586 1130.53 20.4496 1130.53 21.7621V26.0863H1129.51V25.1547H1129.42C1129.02 25.8285 1128.36 26.1977 1127.51 26.1977C1126.31 26.1977 1125.4 25.4712 1125.4 24.3227ZM1127.72 25.313C1128.76 25.313 1129.51 24.6333 1129.51 23.731V23.1568L1127.82 23.2623C1126.86 23.3209 1126.44 23.6607 1126.44 24.2877V24.2994C1126.44 24.938 1126.99 25.313 1127.72 25.313ZM1132.11 17.8481C1132.11 17.4614 1132.43 17.145 1132.81 17.145C1133.2 17.145 1133.52 17.4614 1133.52 17.8481C1133.52 18.2348 1133.2 18.5512 1132.81 18.5512C1132.43 18.5512 1132.11 18.2348 1132.11 17.8481ZM1132.3 19.77H1133.32V26.0864H1132.3V19.77ZM1135.12 19.77H1136.14V20.7192H1136.23C1136.55 20.0512 1137.14 19.6587 1138.07 19.6587C1139.49 19.6587 1140.28 20.4966 1140.28 21.9966V26.0864H1139.26V22.2426C1139.26 21.1059 1138.79 20.561 1137.79 20.561C1136.78 20.561 1136.14 21.2407 1136.14 22.3481V26.0864H1135.12V19.77ZM1142 19.77H1143.02V20.7309H1143.12C1143.4 20.0512 1143.99 19.6586 1144.82 19.6586C1145.68 19.6586 1146.27 20.1098 1146.57 20.766H1146.66C1147 20.098 1147.72 19.6586 1148.59 19.6586C1149.88 19.6586 1150.6 20.3969 1150.6 21.7211V26.0863H1149.58V21.9554C1149.58 21.0238 1149.16 20.5609 1148.27 20.5609C1147.39 20.5609 1146.81 21.223 1146.81 22.0257V26.0862H1145.79V21.7971C1145.79 21.0471 1145.27 20.5608 1144.47 20.5608C1143.65 20.5608 1143.02 21.2815 1143.02 22.1721V26.0862H1142L1142 19.77ZM1152.01 22.9516V22.9457C1152.01 20.9945 1153.12 19.6586 1154.84 19.6586C1156.55 19.6586 1157.6 20.9359 1157.6 22.8227V23.2211H1153.05C1153.08 24.5277 1153.8 25.2895 1154.92 25.2895C1155.78 25.2895 1156.31 24.8852 1156.48 24.5043L1156.5 24.4516H1157.52L1157.51 24.4985C1157.29 25.354 1156.39 26.1977 1154.9 26.1977C1153.1 26.1977 1152.01 24.9321 1152.01 22.9516ZM1153.07 22.4067H1156.56C1156.45 21.1587 1155.76 20.5669 1154.83 20.5669C1153.89 20.5669 1153.18 21.2055 1153.07 22.4067ZM1159.06 19.77H1160.08V20.7192H1160.17C1160.49 20.0512 1161.08 19.6587 1162.01 19.6587C1163.43 19.6587 1164.22 20.4966 1164.22 21.9966V26.0864H1163.2V22.2426C1163.2 21.1059 1162.73 20.561 1161.72 20.561C1160.72 20.561 1160.08 21.2407 1160.08 22.3481V26.0864H1159.06V19.77ZM1166.34 24.4458V20.6138H1165.34V19.77H1166.34V18.1352H1167.39V19.77H1168.78V20.6138H1167.39V24.188C1167.39 24.9321 1167.65 25.231 1168.31 25.231C1168.49 25.231 1168.59 25.2251 1168.78 25.2076V26.0748C1168.58 26.11 1168.38 26.1334 1168.18 26.1334C1166.88 26.1333 1166.34 25.6528 1166.34 24.4458Z" fill="white" fill-opacity="0.8"/>
</g>
<g clip-path="url(#clip5_924_577)">
<path d="M1210.1 23.7166H1206.74L1205.89 26.1365H1204.78L1207.9 17.6814H1208.94L1212.06 26.1365H1210.95L1210.1 23.7166ZM1207.05 22.8201H1209.79L1208.46 19.0467H1208.37L1207.05 22.8201ZM1217.14 21.7537C1216.98 21.1267 1216.42 20.617 1215.52 20.617C1214.38 20.617 1213.66 21.5252 1213.66 22.9549C1213.66 24.4139 1214.39 25.3397 1215.52 25.3397C1216.37 25.3397 1216.96 24.9471 1217.14 24.2323H1218.16C1217.98 25.3925 1217.04 26.2479 1215.52 26.2479C1213.75 26.2479 1212.62 24.9647 1212.62 22.9549C1212.62 20.9861 1213.75 19.7088 1215.52 19.7088C1217.05 19.7088 1217.99 20.6287 1218.16 21.7537H1217.14ZM1223.74 21.7537C1223.58 21.1267 1223.02 20.617 1222.11 20.617C1220.97 20.617 1220.26 21.5252 1220.26 22.9549C1220.26 24.4139 1220.99 25.3397 1222.11 25.3397C1222.96 25.3397 1223.55 24.9471 1223.74 24.2323H1224.76C1224.58 25.3925 1223.63 26.2479 1222.12 26.2479C1220.35 26.2479 1219.22 24.9647 1219.22 22.9549C1219.22 20.9861 1220.34 19.7088 1222.11 19.7088C1223.65 19.7088 1224.58 20.6287 1224.76 21.7537H1223.74ZM1231.32 24.5017C1231.03 25.5798 1230.04 26.2478 1228.66 26.2478C1226.91 26.2478 1225.81 24.9822 1225.81 22.9841C1225.81 20.9978 1226.92 19.7087 1228.66 19.7087C1230.36 19.7087 1231.4 20.9216 1231.4 22.8845V23.2712H1226.86V23.3181C1226.91 24.5661 1227.61 25.3572 1228.68 25.3572C1229.5 25.3572 1230.05 25.0584 1230.31 24.5017H1231.32ZM1226.86 22.4568H1230.34C1230.32 21.3377 1229.65 20.5994 1228.65 20.5994C1227.64 20.5994 1226.94 21.3377 1226.86 22.4568ZM1235.07 19.7088C1236.4 19.7088 1237.32 20.365 1237.45 21.4022H1236.45C1236.32 20.8983 1235.83 20.5643 1235.07 20.5643C1234.32 20.5643 1233.73 20.9452 1233.73 21.5077C1233.73 21.9413 1234.08 22.2108 1234.83 22.3925L1235.8 22.6269C1236.99 22.914 1237.56 23.4296 1237.56 24.3378C1237.56 25.4687 1236.47 26.248 1235.03 26.248C1233.63 26.248 1232.66 25.5742 1232.55 24.5253H1233.58C1233.75 25.0585 1234.26 25.3983 1235.07 25.3983C1235.92 25.3983 1236.53 24.994 1236.53 24.4139C1236.53 23.9803 1236.2 23.6873 1235.52 23.5233L1234.44 23.2596C1233.26 22.9725 1232.72 22.4627 1232.72 21.5487C1232.72 20.4998 1233.73 19.7088 1235.07 19.7088ZM1241.12 19.7088C1242.44 19.7088 1243.36 20.365 1243.49 21.4022H1242.5C1242.36 20.8983 1241.87 20.5643 1241.11 20.5643C1240.36 20.5643 1239.77 20.9452 1239.77 21.5077C1239.77 21.9413 1240.13 22.2108 1240.87 22.3925L1241.84 22.6269C1243.03 22.914 1243.61 23.4296 1243.61 24.3378C1243.61 25.4687 1242.51 26.248 1241.08 26.248C1239.67 26.248 1238.7 25.5742 1238.59 24.5253H1239.63C1239.8 25.0585 1240.3 25.3983 1241.11 25.3983C1241.96 25.3983 1242.57 24.994 1242.57 24.4139C1242.57 23.9803 1242.24 23.6873 1241.57 23.5233L1240.48 23.2596C1239.3 22.9725 1238.76 22.4627 1238.76 21.5487C1238.76 20.4998 1239.77 19.7088 1241.12 19.7088ZM1244.75 22.9783C1244.75 20.9451 1245.87 19.7088 1247.66 19.7088C1249.46 19.7088 1250.58 20.9451 1250.58 22.9783C1250.58 25.0056 1249.46 26.2478 1247.66 26.2478C1245.87 26.2478 1244.75 25.0056 1244.75 22.9783ZM1249.53 22.9783C1249.53 21.4783 1248.86 20.617 1247.66 20.617C1246.47 20.617 1245.79 21.4783 1245.79 22.9783C1245.79 24.4724 1246.47 25.3396 1247.66 25.3396C1248.86 25.3396 1249.53 24.4724 1249.53 22.9783ZM1252.04 19.8201H1253V20.7576H1253.09C1253.28 20.1424 1254.01 19.7088 1254.85 19.7088C1255.01 19.7088 1255.22 19.7205 1255.35 19.7381V20.7459C1255.27 20.7225 1254.9 20.6873 1254.7 20.6873C1253.74 20.6873 1253.05 21.3318 1253.05 22.2225V26.1366H1252.04L1252.04 19.8201ZM1256.31 17.8982C1256.31 17.5115 1256.63 17.1951 1257.02 17.1951C1257.4 17.1951 1257.72 17.5115 1257.72 17.8982C1257.72 18.2849 1257.4 18.6013 1257.02 18.6013C1256.63 18.6013 1256.31 18.2849 1256.31 17.8982ZM1256.51 19.8201H1257.52V26.1365H1256.51V19.8201ZM1264.51 24.5017C1264.22 25.5798 1263.24 26.2478 1261.85 26.2478C1260.1 26.2478 1259.01 24.9822 1259.01 22.9841C1259.01 20.9978 1260.12 19.7087 1261.85 19.7087C1263.56 19.7087 1264.6 20.9216 1264.6 22.8845V23.2712H1260.05V23.3181C1260.11 24.5661 1260.8 25.3572 1261.88 25.3572C1262.69 25.3572 1263.24 25.0584 1263.51 24.5017H1264.51ZM1260.05 22.4568H1263.53C1263.51 21.3377 1262.84 20.5994 1261.84 20.5994C1260.83 20.5994 1260.13 21.3377 1260.05 22.4568ZM1268.27 19.7088C1269.59 19.7088 1270.51 20.365 1270.64 21.4022H1269.65C1269.51 20.8983 1269.02 20.5643 1268.26 20.5643C1267.51 20.5643 1266.92 20.9452 1266.92 21.5077C1266.92 21.9413 1267.28 22.2108 1268.02 22.3925L1268.99 22.6269C1270.18 22.914 1270.76 23.4296 1270.76 24.3378C1270.76 25.4687 1269.66 26.248 1268.23 26.248C1266.82 26.248 1265.85 25.5742 1265.74 24.5253H1266.78C1266.95 25.0585 1267.45 25.3983 1268.26 25.3983C1269.11 25.3983 1269.72 24.994 1269.72 24.4139C1269.72 23.9803 1269.39 23.6873 1268.72 23.5233L1267.63 23.2596C1266.45 22.9725 1265.91 22.4627 1265.91 21.5487C1265.91 20.4998 1266.92 19.7088 1268.27 19.7088Z" fill="white" fill-opacity="0.8"/>
</g>
<g clip-path="url(#clip6_924_577)">
<path d="M1348.7 18.1787V19.8137H1350.11V20.6577H1348.7V24.2317C1348.7 24.9757 1348.98 25.2917 1349.64 25.2917C1349.82 25.2917 1349.92 25.2857 1350.11 25.2687V26.1177C1349.91 26.1537 1349.71 26.1767 1349.51 26.1767C1348.21 26.1767 1347.69 25.6967 1347.69 24.4897V20.6577H1346.67V19.8137H1347.69V18.1787H1348.7ZM1342.57 19.8137H1343.53V20.7507H1343.62C1343.81 20.1357 1344.54 19.7017 1345.37 19.7017C1345.54 19.7017 1345.75 19.7137 1345.88 19.7317V20.7397C1345.8 20.7157 1345.43 20.6807 1345.23 20.6807C1344.27 20.6807 1343.58 21.3247 1343.58 22.2157V26.1297H1342.57V19.8137ZM1340.11 22.9717C1340.11 21.4717 1339.43 20.6107 1338.24 20.6107C1337.04 20.6107 1336.37 21.4717 1336.37 22.9717C1336.37 24.4657 1337.04 25.3327 1338.24 25.3327C1339.43 25.3327 1340.11 24.4657 1340.11 22.9717ZM1335.32 22.9717C1335.32 20.9387 1336.44 19.7017 1338.24 19.7017C1340.04 19.7017 1341.15 20.9387 1341.15 22.9717C1341.15 24.9987 1340.04 26.2417 1338.24 26.2417C1336.44 26.2417 1335.32 24.9987 1335.32 22.9717ZM1333.22 22.9717C1333.22 21.4947 1332.52 20.6107 1331.37 20.6107C1330.23 20.6107 1329.51 21.5187 1329.51 22.9717C1329.51 24.4187 1330.23 25.3327 1331.36 25.3327C1332.52 25.3327 1333.22 24.4487 1333.22 22.9717ZM1334.26 22.9717C1334.26 24.9467 1333.21 26.2417 1331.6 26.2417C1330.7 26.2417 1329.98 25.8487 1329.63 25.1807H1329.54V28.2397H1328.53V19.8137H1329.49V20.8677H1329.58C1329.99 20.1417 1330.74 19.7017 1331.6 19.7017C1333.22 19.7017 1334.26 20.9857 1334.26 22.9717ZM1326.21 22.9717C1326.21 21.4947 1325.52 20.6107 1324.37 20.6107C1323.22 20.6107 1322.5 21.5187 1322.5 22.9717C1322.5 24.4187 1323.22 25.3327 1324.36 25.3327C1325.52 25.3327 1326.21 24.4487 1326.21 22.9717ZM1327.25 22.9717C1327.25 24.9467 1326.21 26.2417 1324.6 26.2417C1323.7 26.2417 1322.97 25.8487 1322.63 25.1807H1322.53V28.2397H1321.52V19.8137H1322.49V20.8677H1322.58C1322.98 20.1417 1323.74 19.7017 1324.6 19.7017C1326.21 19.7017 1327.25 20.9857 1327.25 22.9717ZM1319.61 26.1297H1318.65V25.1397H1318.55C1318.24 25.8427 1317.56 26.2417 1316.6 26.2417C1315.18 26.2417 1314.44 25.3977 1314.44 23.9037V19.8137H1315.45V23.6577C1315.45 24.7937 1315.87 25.3217 1316.88 25.3217C1317.99 25.3217 1318.6 24.6587 1318.6 23.5517V19.8137H1319.61V26.1297ZM1307.92 23.9207C1308.05 24.8057 1308.89 25.3677 1310.09 25.3677C1311.23 25.3677 1312.07 24.7527 1312.07 23.9147C1312.07 23.1947 1311.54 22.7377 1310.37 22.4447L1309.29 22.1627C1307.76 21.7767 1307.1 21.0847 1307.1 19.8837C1307.1 18.4487 1308.3 17.4757 1310.09 17.4757C1311.72 17.4757 1312.94 18.4487 1313.03 19.8137H1311.97C1311.82 18.9467 1311.11 18.4307 1310.05 18.4307C1308.93 18.4307 1308.18 18.9927 1308.18 19.8487C1308.18 20.5107 1308.65 20.8917 1309.81 21.1907L1310.7 21.4247C1312.45 21.8647 1313.15 22.5437 1313.15 23.7857C1313.15 25.3387 1311.93 26.3287 1309.99 26.3287C1308.2 26.3287 1306.96 25.3797 1306.85 23.9207H1307.92Z" fill="white" fill-opacity="0.8"/>
</g>
<g clip-path="url(#clip7_924_577)">
<path d="M1400.02 27.347L1396.15 23.477C1396.85 22.548 1397.27 21.396 1397.27 20.145C1397.27 17.085 1394.78 14.595 1391.72 14.595C1388.66 14.595 1386.17 17.085 1386.17 20.145C1386.17 23.206 1388.66 25.695 1391.72 25.695C1392.97 25.695 1394.12 25.274 1395.05 24.573L1398.92 28.443C1399.07 28.594 1399.27 28.671 1399.47 28.671C1399.67 28.671 1399.86 28.595 1400.02 28.443C1400.32 28.14 1400.32 27.65 1400.02 27.347ZM1387.27 20.145C1387.27 17.691 1389.27 15.695 1391.72 15.695C1394.17 15.695 1396.17 17.692 1396.17 20.145C1396.17 22.598 1394.17 24.595 1391.72 24.595C1389.26 24.595 1387.27 22.599 1387.27 20.145Z" fill="white" fill-opacity="0.8"/>
</g>
<g clip-path="url(#clip8_924_577)">
<path d="M1447.21 16.1733H1446.19C1446.08 15.3623 1445.69 14.6173 1445.07 14.0734C1444.46 13.5295 1443.68 13.2226 1442.86 13.2085C1442.04 13.2226 1441.25 13.5295 1440.64 14.0734C1440.03 14.6173 1439.64 15.3623 1439.53 16.1733H1438.51C1437.94 16.1737 1437.41 16.3967 1437.01 16.7935C1436.61 17.1902 1436.39 17.7283 1436.39 18.2895V26.005C1436.39 26.5661 1436.61 27.1042 1437.01 27.501C1437.41 27.8978 1437.94 28.1211 1438.5 28.1217H1447.21C1447.77 28.1212 1448.31 27.8981 1448.71 27.5012C1449.1 27.1044 1449.33 26.5662 1449.33 26.005V18.2895C1449.33 17.7284 1449.1 17.1904 1448.71 16.7937C1448.31 16.3969 1447.77 16.1738 1447.21 16.1733ZM1442.86 14.3081C1443.39 14.3196 1443.89 14.5107 1444.3 14.8498C1444.7 15.189 1444.98 15.6559 1445.08 16.1733H1440.64C1440.74 15.6559 1441.02 15.189 1441.42 14.8498C1441.82 14.5107 1442.33 14.3196 1442.86 14.3081ZM1448.23 26.005C1448.23 26.2746 1448.12 26.533 1447.93 26.7237C1447.74 26.9144 1447.48 27.0217 1447.21 27.0221H1438.51C1438.24 27.0216 1437.98 26.9143 1437.79 26.7237C1437.6 26.533 1437.49 26.2746 1437.49 26.005V18.2895C1437.49 18.02 1437.6 17.7616 1437.79 17.571C1437.98 17.3804 1438.24 17.2732 1438.51 17.2729H1447.21C1447.48 17.2733 1447.74 17.3805 1447.93 17.5711C1448.12 17.7616 1448.23 18.02 1448.23 18.2895V26.005Z" fill="white" fill-opacity="0.8"/>
</g>
</g>
<defs>
<filter id="filter0_b_924_577" x="-19.9714" y="-19.855" width="1960" height="84" filterUnits="userSpaceOnUse" color-interpolation-filters="sRGB">
<feFlood flood-opacity="0" result="BackgroundImageFix"/>
<feGaussianBlur in="BackgroundImageFix" stdDeviation="10"/>
<feComposite in2="SourceAlpha" operator="in" result="effect1_backgroundBlur_924_577"/>
<feBlend mode="normal" in="SourceGraphic" in2="effect1_backgroundBlur_924_577" result="shape"/>
</filter>
<clipPath id="clip0_924_577">
<rect width="14" height="44" fill="white" transform="translate(470.029 0.14502)"/>
</clipPath>
<clipPath id="clip1_924_577">
<rect width="23" height="44" fill="white" transform="translate(584.309 0.14502)"/>
</clipPath>
<clipPath id="clip2_924_577">
<rect width="34" height="44" fill="white" transform="translate(844.869 0.14502)"/>
</clipPath>
<clipPath id="clip3_924_577">
<rect width="43" height="44" fill="white" transform="translate(914.009 0.14502)"/>
</clipPath>
<clipPath id="clip4_924_577">
<rect width="77" height="44" fill="white" transform="translate(1092.3 0.14502)"/>
</clipPath>
<clipPath id="clip5_924_577">
<rect width="67" height="44" fill="white" transform="translate(1204.44 0.14502)"/>
</clipPath>
<clipPath id="clip6_924_577">
<rect width="44" height="44" fill="white" transform="translate(1306.58 0.14502)"/>
</clipPath>
<clipPath id="clip7_924_577">
<rect width="15" height="44" fill="white" transform="translate(1385.72 0.14502)"/>
</clipPath>
<clipPath id="clip8_924_577">
<rect width="14" height="44" fill="white" transform="translate(1435.86 0.14502)"/>
</clipPath>
</defs>
</svg>
